<?xml version="1.0" encoding="UTF-8"?>
<svg viewBox="0 0 1440 490" xmlns="http://www.w3.org/2000/svg">
  <defs>
    <linearGradient id="sw-gradient-0" x1="0" x2="0" y1="1" y2="0">
      <stop stop-color="rgba(243, 106, 62, 1)" offset="0%" />
      <stop stop-color="rgba(255, 179, 11, 1)" offset="100%" />
    </linearGradient>
  </defs>
  <path fill="url(#sw-gradient-0)" d="M0,294L26.7,285.8C53.3,278,107,261,160,269.5C213.3,278,267,310,320,277.7C373.3,245,427,147,480,138.8C533.3,131,587,212,640,220.5C693.3,229,747,163,800,179.7C853.3,196,907,294,960,285.8C1013.3,278,1067,163,1120,122.5C1173.3,82,1227,114,1280,163.3C1333.3,212,1387,278,1440,253.2V490H0Z"/>
</svg>
